{"title":"AFTER THE SUNSET [2004] BRRip H264 AAC-Rx","uid":5709270,"size":1550863031,"categoryP":"video","categoryS":"movies","magnet":"?xt=urn:btih:1b51c4d562a28b95c39d7237a43d535118109387&amp;dn=AFTER+THE+SUNSET+%5B2004%5D+BRRip+H264+AAC-Rx&amp;tr=udp%3A%2F%2Ftracker.openbittorrent.com%3A80&amp;tr=udp%3A%2F%2Fopen.demonii.com%3A1337&amp;tr=udp%3A%2F%2Ftracker.coppersurfer.tk%3A6969&amp;tr=udp%3A%2F%2Fexodus.desync.com%3A6969","seeders":1,"leechers":0,"uploader":"neon","files":7,"time":1279823550,"description":"After The Sunset 2004 BRRip H264 AAC-Rx(Phoenix-RG).mp4\nFormat : MPEG-4\nFormat profile : Base Media\nCodec ID : isom\nFile size : 1.44 GiB\nDuration : 1h 37mn\nOverall bit rate : 2 125 Kbps\n\nVideo #1\nFormat : AVC\nFormat/Info : Advanced Video Codec\nFormat profile : &lt;a class=&quot;__cf_email__&quot; href=&quot;/cdn-cgi/l/email-protection&quot; data-cfemail=&quot;2068494748606c140e11&quot;&gt;[email&amp;#160;protected]&lt;/a&gt;&lt;script cf-hash='f9e31' type=&quot;text/javascript&quot;&gt;\n/* &lt;![CDATA[ */!function(){try{var t=&quot;currentScript&quot;in document?document.currentScript:function(){for(var t=document.getElementsByTagName(&quot;script&quot;),e=t.length;e--;)if(t[e].getAttribute(&quot;cf-hash&quot;))return t[e]}();if(t&amp;&amp;t.previousSibling){var e,r,n,i,c=t.previousSibling,a=c.getAttribute(&quot;data-cfemail&quot;);if(a){for(e=&quot;&quot;,r=parseInt(a.substr(0,2),16),n=2;a.length-n;n+=2)i=parseInt(a.substr(n,2),16)^r,e+=String.fromCharCode(i);e=document.createTextNode(e),c.parentNode.replaceChild(e,c)}}}catch(u){}}();/* ]]&gt; */&lt;/script&gt;\nFormat settings, CABAC : Yes\nFormat settings, ReFrames : 3 frames\nCodec ID : avc1\nCodec ID/Info : Advanced Video Coding\nDuration : 1h 37mn\nBit rate mode : Variable\nBit rate : 1 800 Kbps\nMaximum bit rate : 12.7 Mbps\nWidth : 1 280 pixels\nHeight : 536 pixels\nDisplay aspect ratio : 2.35\nFrame rate mode : Constant\nFrame rate : 23.976 fps\nResolution : 24 bits\nColorimetry : 4:2:0\nScan type : Progressive\nBits/(Pixel*Frame) : 0.109\nStream size : 1.22 GiB (85%)\nWriting library : x264 core 98 r1649 c54c47d\n\nAudio #2\nFormat : AAC\nFormat/Info : Advanced Audio Codec\nFormat version : Version 4\nFormat profile : LC\nFormat settings, SBR : No\nCodec ID : 40\nDuration : 1h 37mn\nBit rate mode : Variable\nBit rate : 322 Kbps\nMaximum bit rate : 395 Kbps\nChannel(s) : 6 channels\nChannel positions : Front: L C R, Rear: L R, LFE\nSampling rate : 48.0 KHz\nResolution : 16 bits\nStream size : 224 MiB (15%)\n &lt;a href=&quot;\nhttp://www.imdb.com/title/tt0367479/&quot; rel=&quot;nofollow&quot; target=&quot;_NEW&quot;&gt;\nhttp://www.imdb.com/title/tt0367479/&lt;/a&gt;\n\n\nPLOT\n\nThe story of what happens after a master thief achieves his last big score, when the FBI agent who promised he'd capture him is about to do just that. .................\n\n\n &lt;a href=&quot;\nhttp://i865.photobucket.com/albums/ab211/revisionx/Screenshot/vlcsnap-250571.jpg&quot; rel=&quot;nofollow&quot; target=&quot;_NEW&quot;&gt;\nhttp://i865.photobucket.com/albums/ab211/revisionx/Screenshot/vlcsnap-250571.jpg&lt;/a&gt;\n &lt;a href=&quot;\nhttp://i865.photobucket.com/albums/ab211/revisionx/Screenshot/vlcsnap-250329.jpg&quot; rel=&quot;nofollow&quot; target=&quot;_NEW&quot;&gt;\nhttp://i865.photobucket.com/albums/ab211/revisionx/Screenshot/vlcsnap-250329.jpg&lt;/a&gt;\n &lt;a href=&quot;\nhttp://i865.photobucket.com/albums/ab211/revisionx/Screenshot/vlcsnap-250729.jpg&quot; rel=&quot;nofollow&quot; target=&quot;_NEW&quot;&gt;\nhttp://i865.photobucket.com/albums/ab211/revisionx/Screenshot/vlcsnap-250729.jpg&lt;/a&gt;\n\n\n\n\nCAST\n\nPierce Brosnan ... Max Burdett\nSalma Hayek ... Lola Cirillo\nWoody Harrelson ... Stan Lloyd\nDon Cheadle ... Henri MoorÃƒÂ©\nNaomie Harris ... Sophie\nChris Penn ... Rowdy Fan\nTroy Garity ... Luc\nObba BabatundÃƒÂ© ... Zacharias (as Obba Babatunde)\nRussell Hornsby ... Jean-Paul\nMykelti Williamson ... Agent Stafford\nRex Linn ... Agent Kowalski\nRobert Curtis Brown ... Lakers FBI Agent\nMark Moses ... Lakers FBI Agent\nMichael Bowen ... FBI Driver\nTony Ledard ... Referee","torrent":{"xt":"urn:btih:1b51c4d562a28b95c39d7237a43d535118109387","amp;dn":"AFTER+THE+SUNSET+%5B2004%5D+BRRip+H264+AAC-Rx","amp;tr":["udp%3A%2F%2Ftracker.openbittorrent.com%3A80","udp%3A%2F%2Fopen.demonii.com%3A1337","udp%3A%2F%2Ftracker.coppersurfer.tk%3A6969","udp%3A%2F%2Fexodus.desync.com%3A6969"],"infoHash":"1b51c4d562a28b95c39d7237a43d535118109387","infoHashBuffer":{"type":"Buffer","data":[27,81,196,213,98,162,139,149,195,157,114,55,164,61,83,81,24,16,147,135]},"announce":[],"urlList":[]}}